<svg width="24" height="24" viewBox="0 0 24 24" fill="none" xmlns="http://www.w3.org/2000/svg">
<g opacity="0.3">
<path fill-rule="evenodd" clip-rule="evenodd" d="M6.27247 17.7276C5.06332 16.5184 5.06332 14.5526 6.27247 13.3435L9.1009 10.5151L7.75739 9.17156L4.92897 12C2.97735 13.9516 2.97735 17.1194 4.92897 19.0711C6.88058 21.0227 10.0484 21.0227 12 19.0711L14.8285 16.2426L13.485 14.8991L10.6565 17.7276C9.44738 18.9367 7.48162 18.9367 6.27247 17.7276ZM9.87871 15.5355L15.5356 9.87867L14.1214 8.46445L8.4645 14.1213L9.87871 15.5355ZM12 4.92892L9.17161 7.75735L10.5151 9.10085L13.3435 6.27242C14.5527 5.06327 16.5184 5.06327 17.7276 6.27242C18.9368 7.48158 18.9368 9.44733 17.7276 10.6565L14.8992 13.4849L16.2427 14.8284L19.0711 12C21.0227 10.0484 21.0227 6.88054 19.0711 4.92892C17.1195 2.97731 13.9516 2.97731 12 4.92892Z" fill="black"/>
</g>
</svg>
